#N canvas 827 239 734 565 12;
#X text 1802 44 Sources: \; \; How to Create Generative Ambient Music in Pure Data! \; https://www.youtube.com/watch?v=fgkUChwL2B4, f 56;
#X obj 112 141 osc~ 440;
#X floatatom 106 70 5 0 0 0 - - - 12;
#X floatatom 268 157 23 0 0 0 - - - 12;
#X obj 271 215 osc~;
#X obj 261 278 *~ 0.75;
#X obj 275 112 * 2;
#X floatatom 507 147 23 0 0 0 - - - 12;
#X obj 510 205 osc~;
#X floatatom 731 158 23 0 0 0 - - - 12;
#X obj 723 212 osc~;
#X floatatom 907 141 23 0 0 0 - - - 12;
#X obj 910 199 osc~;
#X obj 730 271 *~ 0.4;
#X obj 900 262 *~ 0.23;
#X obj 500 268 *~ 0.6;
#X obj 514 102 * 3;
#X obj 724 102 * 4;
#X obj 914 96 * 5;
#X obj 125 408 *~ 0.1;
#X obj 107 19 loadbang;
#X obj 119 555 dac~;
#X obj 119 469 clip~ -10 0.5;
#X connect 1 0 19 0;
#X connect 2 0 1 0;
#X connect 2 0 6 0;
#X connect 2 0 16 0;
#X connect 2 0 17 0;
#X connect 2 0 18 0;
#X connect 3 0 4 0;
#X connect 4 0 5 0;
#X connect 5 0 19 0;
#X connect 6 0 3 0;
#X connect 7 0 8 0;
#X connect 8 0 15 0;
#X connect 9 0 10 0;
#X connect 10 0 13 0;
#X connect 11 0 12 0;
#X connect 12 0 14 0;
#X connect 13 0 19 0;
#X connect 14 0 19 0;
#X connect 15 0 19 0;
#X connect 16 0 7 0;
#X connect 17 0 9 0;
#X connect 18 0 11 0;
#X connect 19 0 22 0;
#X connect 20 0 2 0;
#X connect 22 0 21 0;
#X connect 22 0 21 1;
