#N canvas 827 239 734 565 12;
#X floatatom 356 100 5 0 0 0 - - - 0;
#X text 328 70 change tempo;
#X obj 153 248 send b1;
#X obj 186 220 send b2;
#X obj 205 279 send b3;
#X obj 237 240 send b4;
#X obj 318 268 send b6;
#X obj 379 235 send b7;
#X obj 418 271 send b8;
#X obj 110 285 send b16;
#X obj 308 213 send b5;
#X obj 820 239 bng 25 250 50 0 empty empty empty 17 7 0 10 #191919 #e1e1e1 #e1e1e1;
#X obj 818 185 random_beat;
#X obj 847 65 receive b16;
#X obj 220 149 clockdivision;
#X obj 219 102 tgl 25 0 empty empty empty 17 7 0 10 #191919 #e1e1e1 #e1e1e1 0 1;
#X text 819 307 C;
#X text 905 307 F;
#X obj 821 336 f 130.81;
#X obj 906 335 float 87.31;
#X obj 901 245 bng 25 250 50 0 empty empty empty 17 7 0 10 #191919 #e1e1e1 #e1e1e1;
#X obj 764 62 receive b1;
#X floatatom 820 393 5 0 0 0 - - - 12;
#X obj 819 446 phasor~;
#X obj 1009 360 line;
#X msg 1008 311 1 500;
#X text 818 20 Bass;
#X text 919 154 % chance;
#X obj 1006 243 bng 25 250 50 0 empty empty empty 17 7 0 10 #191919 #e1e1e1 #e1e1e1;
#X text 1274 24 Melody;
#X obj 1314 70 receive b4;
#X obj 1278 307 phasor~;
#X obj 1418 305 phasor~;
#X obj 1406 270 * 1.005;
#X obj 817 683 send~ bass;
#X obj 1279 582 send~ melody;
#X obj 152 916 receive~ bass;
#X obj 274 915 receive~ melody;
#X floatatom 440 876 5 0 0 0 - - - 12;
#X floatatom 607 874 5 0 0 0 - - - 12;
#X floatatom 519 875 5 0 0 0 - - - 12;
#X msg 442 921 wet \$1;
#X msg 518 922 dry \$1;
#X msg 606 921 roomsize \$1;
#X obj 441 822 loadbang;
#X obj 1315 210 mtof;
#X obj 819 516 lop~ 90;
#X obj 217 1394 dac~;
#X obj 1280 481 *~ 0.3;
#X obj 130 1023 phaser~ 3 0.5 0.1;
#X obj 282 1161 free.rev~ 0.3 0.1;
#X obj 1280 532 envelope~ 0.4;
#X obj 1279 427 lop~ 100;
#X obj 820 598 *~ 0.8;
#X obj 54 1325 compress~ -30 2 5 5 12 256;
#X obj 255 1335 compress~ -30 2 5 5 12 256;
#X obj 211 1267 *~ 0.7;
#X obj 282 1256 *~ 0.7;
#N canvas 733 172 450 300 random_chord 0;
#X obj 1229 241 select 0 1 2 3 4 5 6 7 8;
#X obj 1208 296 f 60;
#X obj 1266 316 f 62;
#X obj 1291 286 f 64;
#X obj 1314 328 f 65;
#X obj 1338 296 f 67;
#X obj 1367 321 f 69;
#X obj 1375 284 f 71;
#X obj 1415 314 f 72;
#X obj 1451 278 f 73;
#X floatatom 1299 388 5 0 0 0 - - - 12;
#X obj 1229 162 inlet;
#X obj 1297 425 outlet;
#X obj 1232 203 random 8;
#X connect 0 0 1 0;
#X connect 0 1 2 0;
#X connect 0 2 3 0;
#X connect 0 3 4 0;
#X connect 0 4 5 0;
#X connect 0 5 6 0;
#X connect 0 6 7 0;
#X connect 0 7 8 0;
#X connect 0 8 9 0;
#X connect 1 0 10 0;
#X connect 2 0 10 0;
#X connect 3 0 10 0;
#X connect 4 0 10 0;
#X connect 5 0 10 0;
#X connect 6 0 10 0;
#X connect 7 0 10 0;
#X connect 8 0 10 0;
#X connect 9 0 10 0;
#X connect 10 0 12 0;
#X connect 11 0 13 0;
#X connect 13 0 0 0;
#X restore 1315 114 pd random_chord;
#X obj 220 66 loadbang;
#X text 227 7 Play/pause metronome, f 19;
#X msg 1188 1180 disconnect;
#X obj 914 1274 netsend -u -b;
#X floatatom 914 944 7 0 0 0 - - - 12;
#X floatatom 1159 938 4 0 0 0 - - - 12;
#X text 1330 1227 localhost: 127.0.0.1;
#X text 1336 1254 to create a broadcast invert all bits that are 0 in subnet mask, f 67;
#X obj 915 1054 else/osc.format;
#X text 1319 1133 ip address (localhost) and port number;
#X text 50 768 Master Out;
#X text 917 765 OSC Out;
#X obj 986 1124 loadbang;
#X obj 987 1151 bng 25 250 50 0 empty empty empty 17 7 0 10 #191919 #e1e1e1 #e1e1e1;
#X obj 1189 1142 bng 25 250 50 0 empty empty empty 17 7 0 10 #191919 #e1e1e1 #e1e1e1;
#X msg 995 1328, f 30;
#X obj 909 1334 nbx 4 18 -1e+37 1e+37 0 0 empty empty empty 0 -8 0 10 #191919 #e1e1e1 #e1e1e1 0 256;
#X msg 982 1182 connect 127.0.0.1 4000;
#X obj 882 155 f 40;
#X obj 881 120 loadbang;
#X msg 1159 983 /1/scale \$1;
#N canvas 733 172 450 300 normalize 0;
#X floatatom 1662 878 5 0 0 0 - - - 0;
#X obj 1717 878 f 60;
#X obj 1779 878 f 73;
#X floatatom 1723 998 5 0 0 0 - - - 0;
#X obj 1689 922 -;
#X obj 1762 927 -;
#X obj 1717 962 /;
#X obj 1640 774 inlet val;
#X obj 1715 770 inlet min;
#X obj 1798 768 inlet max;
#X obj 1724 1046 outlet;
#X connect 0 0 4 0;
#X connect 1 0 4 1;
#X connect 1 0 5 1;
#X connect 2 0 5 0;
#X connect 3 0 10 0;
#X connect 4 0 6 0;
#X connect 5 0 6 1;
#X connect 6 0 3 0;
#X connect 7 0 0 0;
#X connect 8 0 1 0;
#X connect 9 0 2 0;
#X restore 1558 311 pd normalize;
#X obj 1644 268 f 73;
#X obj 1588 270 f 60;
#X floatatom 1559 360 5 0 0 0 - - - 0;
#X floatatom 1538 266 5 0 0 0 - - - 0;
#X obj 1603 231 bang;
#X obj 1158 892 receive scale;
#X obj 1558 404 send scale;
#X obj 914 886 receive speed;
#X obj 624 368 send speed;
#X msg 914 981 /1/speed \$1;
#X obj 685 307 f 0.005;
#X obj 613 303 f 0.001;
#X connect 0 0 14 1;
#X connect 11 0 18 0;
#X connect 11 0 92 0;
#X connect 12 0 11 0;
#X connect 12 1 20 0;
#X connect 13 0 12 1;
#X connect 14 0 9 0;
#X connect 14 1 2 0;
#X connect 14 2 3 0;
#X connect 14 3 4 0;
#X connect 14 4 5 0;
#X connect 14 5 10 0;
#X connect 14 6 6 0;
#X connect 14 7 7 0;
#X connect 14 8 8 0;
#X connect 15 0 14 0;
#X connect 18 0 22 0;
#X connect 19 0 22 0;
#X connect 20 0 19 0;
#X connect 20 0 91 0;
#X connect 21 0 12 0;
#X connect 22 0 23 0;
#X connect 23 0 46 0;
#X connect 24 0 53 1;
#X connect 25 0 24 0;
#X connect 28 0 25 0;
#X connect 30 0 58 0;
#X connect 31 0 52 0;
#X connect 32 0 52 0;
#X connect 33 0 32 0;
#X connect 36 0 49 0;
#X connect 36 0 49 1;
#X connect 37 0 50 0;
#X connect 37 0 50 1;
#X connect 38 0 41 0;
#X connect 39 0 43 0;
#X connect 40 0 42 0;
#X connect 41 0 50 0;
#X connect 42 0 50 0;
#X connect 43 0 50 0;
#X connect 44 0 40 0;
#X connect 44 0 38 0;
#X connect 44 0 39 0;
#X connect 45 0 31 0;
#X connect 45 0 33 0;
#X connect 46 0 53 0;
#X connect 48 0 51 0;
#X connect 49 0 56 0;
#X connect 49 0 57 0;
#X connect 50 0 56 0;
#X connect 50 1 57 0;
#X connect 51 0 35 0;
#X connect 52 0 48 0;
#X connect 53 0 34 0;
#X connect 54 0 47 0;
#X connect 55 0 47 1;
#X connect 56 0 54 0;
#X connect 57 0 55 0;
#X connect 58 0 45 0;
#X connect 58 0 84 0;
#X connect 58 0 85 0;
#X connect 59 0 15 0;
#X connect 61 0 62 0;
#X connect 62 0 75 0;
#X connect 62 1 74 0;
#X connect 63 0 90 0;
#X connect 64 0 79 0;
#X connect 67 0 62 0;
#X connect 71 0 72 0;
#X connect 72 0 76 0;
#X connect 73 0 61 0;
#X connect 76 0 62 0;
#X connect 77 0 12 2;
#X connect 78 0 77 0;
#X connect 79 0 67 0;
#X connect 80 0 83 0;
#X connect 81 0 80 2;
#X connect 82 0 80 1;
#X connect 83 0 87 0;
#X connect 84 0 80 0;
#X connect 85 0 82 0;
#X connect 85 0 81 0;
#X connect 86 0 64 0;
#X connect 88 0 63 0;
#X connect 90 0 67 0;
#X connect 91 0 89 0;
#X connect 92 0 89 0;
