#N canvas 827 239 734 565 12;
#X obj 413 141 tgl 19 0 empty empty empty 17 7 0 10 #dfdfdf #000000 #000000 0 1;
#X msg 591 144 0.5;
#X msg 627 144 1;
#X msg 556 144 4;
#X text 658 142 beat length;
#X msg 461 179 tempo \$1 permin;
#X floatatom 461 143 5 0 0 0 - - - 0;
#X floatatom 591 205 5 0 0 0 - - - 0;
#X text 366 180 on/off;
#X text 165 101 change tempo;
#X obj 591 181 expr 1/$f1;
#X obj 461 258 bng 19 250 50 0 empty empty empty 17 7 0 10 #dfdfdf #000000 #000000;
#X obj 355 259 select 0;
#X obj 358 294 bng 25 250 50 0 empty empty empty 17 7 0 10 #191919 #e1e1e1 #e1e1e1;
#X obj 358 347 f -1;
#X obj 459 415 int 1;
#X obj 537 412 + 1;
#X floatatom 454 467 5 0 0 0 - - - 0;
#X obj 453 510 % 8;
#X obj 456 552 + 1;
#X floatatom 457 593 5 0 0 0 - - - 0;
#X text 411 29 Set BPM, f 19;
#X text 54 242 Reset counter when \; metronome is turned off, f 26;
#X obj 329 507 % 16;
#X obj 330 559 + 1;
#X floatatom 330 602 5 0 0 0 - - - 12;
#X obj 331 644 select 1;
#X obj 332 685 bng 25 250 50 0 empty empty empty 17 7 0 10 #191919 #e1e1e1 #e1e1e1;
#X obj 457 656 select 1 2 3 4 5 6 7 8;
#X obj 461 231 metro 1 60 permin, f 19;
#X text 55 447 Perform clock division;
#X obj 560 918 outlet beat 2;
#X obj 463 913 outlet beat 1;
#X obj 331 914 outlet beat 16;
#X obj 663 915 outlet beat 3;
#X obj 783 917 outlet beat 4;
#X obj 891 918 outlet beat 5;
#X obj 987 918 outlet beat 6;
#X obj 1092 916 outlet beat 7;
#X obj 1205 920 outlet beat 8;
#X obj 316 80 inlet active - int of 1 or 0);
#X obj 514 80 inlet bpm;
#X obj 1331 921 outlet all;
#X connect 0 0 12 0;
#X connect 0 0 29 0;
#X connect 1 0 10 0;
#X connect 2 0 10 0;
#X connect 3 0 10 0;
#X connect 5 0 29 0;
#X connect 6 0 5 0;
#X connect 7 0 29 1;
#X connect 10 0 7 0;
#X connect 11 0 15 0;
#X connect 11 0 42 0;
#X connect 12 0 13 0;
#X connect 13 0 14 0;
#X connect 14 0 15 0;
#X connect 15 0 16 0;
#X connect 15 0 17 0;
#X connect 16 0 15 1;
#X connect 17 0 18 0;
#X connect 17 0 23 0;
#X connect 18 0 19 0;
#X connect 19 0 20 0;
#X connect 20 0 28 0;
#X connect 23 0 24 0;
#X connect 24 0 25 0;
#X connect 25 0 26 0;
#X connect 26 0 27 0;
#X connect 27 0 33 0;
#X connect 28 0 32 0;
#X connect 28 1 31 0;
#X connect 28 2 34 0;
#X connect 28 3 35 0;
#X connect 28 4 36 0;
#X connect 28 5 37 0;
#X connect 28 6 38 0;
#X connect 28 7 39 0;
#X connect 29 0 11 0;
#X connect 40 0 0 0;
#X connect 41 0 6 0;
