#N canvas 827 239 734 565 12;
#X obj 216 137 random 100;
#X obj 218 91 bng 25 250 50 0 empty empty empty 17 7 0 10 #191919 #e1e1e1 #e1e1e1;
#X floatatom 217 173 5 0 0 0 - - - 0;
#X obj 219 265 tgl 25 0 empty empty empty 17 7 0 10 #191919 #e1e1e1 #e1e1e1 0 1;
#X obj 99 324 spigot;
#X obj 100 32 inlet source (bang);
#X obj 573 25 inlet probability (int <100);
#X obj 217 220 < 100;
#X obj 234 30 loadbang;
#X obj 328 30 inlet trigger randomizer;
#X obj 97 403 outlet true_bang;
#X obj 536 412 outlet false_bang;
#X obj 561 227 > 100;
#X obj 564 273 tgl 25 0 empty empty empty 17 7 0 10 #191919 #e1e1e1 #e1e1e1 0 1;
#X obj 536 340 spigot;
#X connect 0 0 2 0;
#X connect 1 0 0 0;
#X connect 2 0 7 0;
#X connect 2 0 12 0;
#X connect 3 0 4 1;
#X connect 4 0 10 0;
#X connect 5 0 4 0;
#X connect 5 0 14 0;
#X connect 6 0 7 1;
#X connect 6 0 12 1;
#X connect 7 0 3 0;
#X connect 8 0 1 0;
#X connect 9 0 1 0;
#X connect 12 0 13 0;
#X connect 13 0 14 1;
#X connect 14 0 11 0;
