#N canvas 827 239 527 327 12;
#X text 25 17 Generate Number;
#X text 274 17 Guessing;
#X obj 293 85 bng 25 250 50 0 empty empty empty 17 7 0 10 #e4e4e4 #4d4d4d #373737;
#X obj 363 85 bng 25 250 50 0 empty empty empty 17 7 0 10 #e4e4e4 #4d4d4d #373737;
#X obj 434 85 bng 25 250 50 0 empty empty empty 17 7 0 10 #e4e4e4 #4d4d4d #373737;
#X obj 67 631 print;
#X obj 336 688 else/play.file~ fail.wav;
#X msg 336 660 start;
#X msg 130 660 start;
#X obj 130 688 else/play.file~ level-up.wav;
#X obj 130 741 dac~ 1 2;
#X obj 336 741 dac~ 1 2;
#X obj 270 631 print;
#X obj 484 741 output~;
#X obj 169 363 ==;
#X text 296 61 0;
#X text 366 61 1;
#X text 437 61 2;
#X msg 293 142 0;
#X msg 363 142 1;
#X msg 434 142 2;
#X floatatom 293 211 5 0 0 0 empty - - 12;
#X msg 67 584 right!;
#X obj 67 531 bng 25 250 50 0 empty empty empty 17 7 0 10 #e4e4e4 #4d4d4d #373737;
#X obj 270 531 bng 25 250 50 0 empty empty empty 17 7 0 10 #e4e4e4 #4d4d4d #373737;
#X msg 270 584 wrong!;
#X obj 282 269 f;
#X obj 137 160 t b b b;
#X floatatom 67 253 5 0 0 0 - - - 0;
#X obj 67 211 random 3;
#X floatatom 300 306 5 0 0 0 - - - 0;
#X obj 169 406 select 0 1;
#X msg 367 464 ERROR - invalid value: \$1;
#X obj 373 509 print;
#X connect 2 0 18 0;
#X connect 2 0 27 0;
#X connect 3 0 19 0;
#X connect 3 0 27 0;
#X connect 4 0 20 0;
#X connect 4 0 27 0;
#X connect 6 0 11 0;
#X connect 6 1 11 1;
#X connect 7 0 6 0;
#X connect 8 0 9 0;
#X connect 9 0 10 0;
#X connect 9 1 10 1;
#X connect 14 0 31 0;
#X connect 18 0 21 0;
#X connect 19 0 21 0;
#X connect 20 0 21 0;
#X connect 21 0 26 1;
#X connect 22 0 5 0;
#X connect 23 0 22 0;
#X connect 23 0 8 0;
#X connect 24 0 25 0;
#X connect 24 0 7 0;
#X connect 25 0 12 0;
#X connect 26 0 14 1;
#X connect 26 0 30 0;
#X connect 27 0 14 0;
#X connect 27 1 26 0;
#X connect 27 2 29 0;
#X connect 28 0 14 0;
#X connect 29 0 28 0;
#X connect 31 0 24 0;
#X connect 31 1 23 0;
#X connect 31 2 32 0;
#X connect 32 0 33 0;
