#N canvas 827 239 734 565 12;
#X obj 33 112 inlet active_toggle float;
#X text 809 245 extend it in such a way that the repetition time gets multiplied by 0.9 for each time the sound repeats. By multiplying the time by 0.9 (over and over) the repetition goes faster and faster. The repetition should stop (use [spigot]) when the repetition time becomes shorter than 10 ms., f 42;
#X text 538 467 store current delay;
#X obj 473 100 inlet delay_float;
#X obj 508 251 float;
#X obj 217 185 t b b b;
#X obj 624 345 * 0.9;
#X obj 218 259 spigot;
#X obj 154 329 delay;
#X text 509 296 decrease delay time;
#X text 365 27 check if delay is equal or smaller than 0;
#X obj 325 255 > 0;
#X obj 231 419 outlet b;
#X connect 0 0 7 1;
#X connect 3 0 4 0;
#X connect 3 0 5 0;
#X connect 4 0 8 1;
#X connect 4 0 11 0;
#X connect 4 0 6 0;
#X connect 5 0 7 0;
#X connect 5 1 12 0;
#X connect 5 2 4 0;
#X connect 6 0 4 1;
#X connect 7 0 8 0;
#X connect 8 0 5 0;
#X connect 11 0 7 1;
