#N canvas 0 23 925 610 12;
#X obj 471 214 soundfiler;
#X obj 471 151 openpanel;
#X obj 520 284 /;
#X msg 538 254 \$1;
#X obj 520 311 * 1000;
#X obj 471 238 t f f;
#X text 570 254 samplerate;
#X obj 470 411 outlet;
#X obj 520 412 outlet;
#X text 569 413 duration (ms);
#X text 338 410 amount of samples;
#X obj 471 118 inlet;
#X msg 471 183 read -resize \$1 my_array;
#X obj 763 380;
#X obj 563 345;
#X connect 0 0 5 0;
#X connect 0 1 3 0;
#X connect 1 0 12 0;
#X connect 2 0 4 0;
#X connect 3 0 2 1;
#X connect 4 0 8 0;
#X connect 5 0 7 0;
#X connect 5 1 2 0;
#X connect 11 0 1 0;
#X connect 12 0 0 0;
