#N canvas 827 239 734 565 12;
#N canvas 0 0 450 250 (subpatch) 0;
#X array helloworld 323756 float 2;
#X coords 0 1 323756 -1 200 140 1;
#X restore 473 174 graph;
#X obj 589 529 tabwrite~ helloworld;
#X obj 368 414 adc~;
#X obj 606 435 bng 25 250 50 0 empty empty empty 17 7 0 10 #e4e4e4 #4d4d4d #4d4d4d;
#X text 735 529 Save signal data (~ = signal) to an array;
#X text 472 323 Array for signals. Change name and array length (48000 * record length) in the properties.;
#X obj 1123 436 tabread~ helloworld;
#X obj 1131 499 dac~;
#X text 1188 502 output speaker;
#X floatatom 1161 186 5 0 0 0 - - - 0;
#X obj 1165 147 bng 25 250 50 0 empty empty empty 17 7 0 10 #e4e4e4 #4d4d4d #373737;
#X text 1205 181 Stop playback;
#X obj 1120 328 line~;
#X text 1209 287 Line ramp generator. Go linearly through the array and output it. \; variables: \; 1 to what place in the array to you want to output the sound? \; 2 in what time (ms) do you want the sound to be outputted? \; \; INPUT THESE VARIABLES AS A MESSAGE BOX. PLAYBACK IS TRIGGERED WHEN THESE VARIABES ARE INPUTTED!;
#X floatatom 943 174 5 0 0 0 - - - 0;
#X text 1413 169 Duration that the \; playback should take in ms;
#X obj 945 51 bng 25 250 50 0 empty empty empty 17 7 0 10 #e4e4e4 #4d4d4d #373737;
#X text 1187 216 Make sure to reset playback to 0 befor replaying!;
#X obj 1751 439 tabwrite;
#X obj 1879 372 pack f f f f f;
#X floatatom 1851 223 5 0 0 0 - - - 0;
#X obj 1878 443 print;
#X obj 1843 140 bng 25 250 50 0 empty empty empty 17 7 0 10 #e4e4e4 #4d4d4d #373737;
#X obj 2089 466 unpack f f f f f;
#X floatatom 2056 527 5 0 0 0 - - - 0;
#X floatatom 2105 529 5 0 0 0 - - - 0;
#X floatatom 2160 523 5 0 0 0 - - - 0;
#X floatatom 2226 531 5 0 0 0 - - - 0;
#X floatatom 2141 585 5 0 0 0 - - - 0;
#X msg 2077 299 500 40 30 20 -10;
#X obj 2060 172 bng 25 250 50 0 empty empty empty 17 7 0 10 #e4e4e4 #4d4d4d #373737;
#X text 2129 143 Take message of multiple values split by a space and split them into multiple separate numbrs \; \; \; comparable to .split(' ') and .join(' ');
#X obj 2667 340 my_soundfiler;
#X text 2803 335 You can open other patches as functions (aka. abstractions) by placing them in the same folder and calling their name. allows to use patches as functions to avoid repeating code.;
#X obj 2671 235 bng 25 250 50 0 empty empty empty 17 7 0 10 #e4e4e4 #4d4d4d #373737;
#X floatatom 2653 446 5 0 0 0 - - - 0;
#X floatatom 2727 435 5 0 0 0 - - - 0;
#N canvas 0 0 450 250 (subpatch) 0;
#X array my_array 58417 float 2;
#X coords 0 1 58417 -1 200 140 1;
#X restore 2946 147 graph;
#X text 3166 146 Somehow the my_array is referenced in \; my_soundfiler to save the data to., f 36;
#X text 2668 35 Multiple parameters \; is unpack/pack .join()/.split()? \; can i add directions for expected input types? \;;
#X floatatom 1031 149 5 0 0 0 - - - 0;
#X msg 1018 264 192000 \$1 \$2;
#X obj 1011 312 print;
#X obj 1019 214 pack;
#X connect 2 0 1 0;
#X connect 2 1 1 0;
#X connect 3 0 1 0;
#X connect 6 0 7 0;
#X connect 6 0 7 1;
#X connect 9 0 12 0;
#X connect 10 0 9 0;
#X connect 12 0 6 0;
#X connect 14 0 43 0;
#X connect 16 0 14 0;
#X connect 19 0 21 0;
#X connect 19 0 23 0;
#X connect 20 0 19 0;
#X connect 20 0 19 1;
#X connect 20 0 19 2;
#X connect 20 0 19 3;
#X connect 20 0 19 4;
#X connect 22 0 20 0;
#X connect 23 0 24 0;
#X connect 23 1 25 0;
#X connect 23 2 28 0;
#X connect 23 3 26 0;
#X connect 23 4 27 0;
#X connect 29 0 23 0;
#X connect 30 0 29 0;
#X connect 32 0 35 0;
#X connect 32 1 36 0;
#X connect 34 0 32 0;
#X connect 40 0 43 1;
#X connect 41 0 12 0;
#X connect 41 0 42 0;
#X connect 43 0 41 0;
