#N canvas 827 239 734 565 12;
#N canvas 0 0 450 250 (subpatch) 0;
#X array micRecording 192000 float 2;
#X coords 0 1 192000 -1 200 140 1;
#X restore 44 339 graph;
#X obj 46 89 adc~;
#X obj 292 170 bng 25 250 50 0 empty empty empty 17 7 0 10 #e4e4e4 #4d4d4d #4d4d4d;
#X text 248 260 Save signal data (~ = signal) to an array;
#X text 40 487 Array for signals. Change name and array length (48000 * record length) in the properties.;
#X obj 247 234 tabwrite~ micRecording;
#X text 39 23 Record audio, f 17;
#X text 456 95 r = 114;
#X obj 218 112 print;
#X text 458 115 p = 112;
#X obj 293 112 select 114 112;
#X obj 622 137 bng 25 250 50 0 empty empty empty 17 7 0 10 #e4e4e4 #4d4d4d #373737;
#X text 941 334 Line ramp generator. Go linearly through the array and output it. \; variables: \; 1 to what place in the array to you want to output the sound? \; 2 in what time (ms) do you want the sound to be outputted? \; \; INPUT THESE VARIABLES AS A MESSAGE BOX. PLAYBACK IS TRIGGERED WHEN THESE VARIABES ARE INPUTTED!;
#X text 913 278 Duration that the \; playback should take in ms;
#X obj 552 19 key_repeat_filter;
#X obj 854 83 select 112;
#X obj 749 311 spigot;
#X obj 718 583 output~;
#X obj 734 494 tabplay~ micRecording;
#X obj 743 412 b;
#X obj 723 182 f 1;
#X obj 808 180 f 0;
#X connect 1 0 5 0;
#X connect 1 1 5 0;
#X connect 2 0 5 0;
#X connect 10 0 2 0;
#X connect 10 1 11 0;
#X connect 11 0 18 0;
#X connect 11 0 20 0;
#X connect 14 0 8 0;
#X connect 14 0 10 0;
#X connect 14 1 15 0;
#X connect 15 0 21 0;
#X connect 16 0 19 0;
#X connect 18 0 17 0;
#X connect 18 0 17 1;
#X connect 18 1 16 0;
#X connect 19 0 18 0;
#X connect 20 0 16 1;
#X connect 21 0 16 1;
