#N canvas 0 23 786 657 12;
#X obj 154 101 inlet~;
#X obj 152 774 outlet~;
#X obj 393 110 inlet;
#X obj 510 111 inlet;
#X text 145 57 audio in;
#X text 260 64 delay ms;
#X obj 268 103 inlet;
#X text 145 806 audio out;
#X text -7 925 delay buffer is 10 seconds;
#X floatatom 258 196 5 0 0 0 - - - 0;
#X obj 264 413 sig~ \$1;
#X text 378 60 enable input 0/1, f 11;
#X text 501 58 mute/enable feedback 0/1, f 14;
#X obj 266 585 delread4~ \$0_our_delayline 500;
#X obj 322 304 delwrite~ \$0_our_delayline 1100;
#X obj 630 472 *~ 1;
#X obj 158 157 *~ 0;
#X text 42 156 input toggle;
#X text 682 469 Feedback toggle;
#X connect 0 0 16 0;
#X connect 2 0 16 1;
#X connect 3 0 15 1;
#X connect 6 0 9 0;
#X connect 9 0 10 0;
#X connect 10 0 13 0;
#X connect 13 0 1 0;
#X connect 13 0 15 0;
#X connect 15 0 14 0;
#X connect 16 0 14 0;
#X connect 16 0 1 0;
