#N canvas 279 158 1278 771 12;
#X floatatom 126 337 5 0 0 0 - - - 0;
#X obj 153 380 tgl 15 0 empty empty empty 17 7 0 10 #fcfcfc #000000 #000000 0 1;
#X obj 179 414 tgl 15 0 empty empty empty 17 7 0 10 #fcfcfc #000000 #000000 0 1;
#X obj 98 289 adc~ 1 2;
#X text 165 290 audio in;
#X text 168 337 delay in ms;
#X obj 98 489 dac~ 1 2;
#X obj 396 212 tgl 15 0 empty empty empty 17 7 0 10 #fcfcfc #000000 #000000 0 1;
#X obj 391 259 == 0;
#X floatatom 588 525 5 0 0 0 - - - 0;
#X obj 615 568 tgl 15 0 empty empty empty 17 7 0 10 #fcfcfc #000000 #000000 0 1;
#X obj 641 602 tgl 15 0 empty empty empty 17 7 0 10 #fcfcfc #000000 #000000 0 1;
#X obj 560 477 adc~ 1 2;
#X text 627 478 audio in;
#X text 630 525 delay in ms;
#X obj 560 677 dac~ 1 2;
#X obj 858 400 tgl 15 0 empty empty empty 17 7 0 10 #fcfcfc #000000 #000000 0 1;
#X obj 853 447 == 0;
#X obj 476 159 tgl 15 0 empty empty empty 17 7 0 10 #fcfcfc #000000 #000000 0 1;
#X obj 98 437 looper~ 500;
#X obj 560 624 looper~ 520;
#X text 202 414 mute/enable output and feedback 0/1;
#X text 177 377 enable input 0/1;
#X text 664 601 mute/enable output and feedback 0/1;
#X text 639 565 enable input 0/1;
#X obj 20 597 vu 20 120 empty empty -1 -8 0 10 #404040 #e1e1e1 1 0;
#X obj 14 536 snapshot~;
#X obj 10 476 +~ 100;
#X connect 0 0 19 1;
#X connect 1 0 19 2;
#X connect 2 0 19 3;
#X connect 3 0 19 0;
#X connect 3 0 27 0;
#X connect 7 0 8 0;
#X connect 7 0 1 0;
#X connect 8 0 2 0;
#X connect 9 0 20 1;
#X connect 10 0 20 2;
#X connect 11 0 20 3;
#X connect 12 0 20 0;
#X connect 16 0 17 0;
#X connect 16 0 10 0;
#X connect 17 0 11 0;
#X connect 18 0 7 0;
#X connect 18 0 16 0;
#X connect 19 0 6 0;
#X connect 20 0 15 1;
#X connect 26 0 25 0;
#X connect 27 0 26 0;
