#N canvas 0 23 1521 727 12;
#X obj 72 510 vline~;
#X obj 162 510 noise~;
#X obj 72 559 *~;
#X obj 72 632 dac~ 1 2;
#X obj 72 385 bng 15 250 50 0 empty empty empty 17 7 0 10 #fcfcfc #000000 #000000;
#X obj 260 510 vline~;
#X obj 260 559 *~;
#X obj 260 632 dac~ 1 2;
#X obj 260 383 bng 15 250 50 0 empty empty empty 17 7 0 10 #fcfcfc #000000 #000000;
#X obj 350 510 osc~ 220;
#X obj 162 534 *~ 0.2;
#X obj 350 534 *~ 0.2;
#X obj 461 510 vline~;
#X obj 461 559 *~;
#X obj 461 632 dac~ 1 2;
#X obj 461 382 bng 15 250 50 0 empty empty empty 17 7 0 10 #fcfcfc #000000 #000000;
#X obj 551 534 *~ 0.2;
#X obj 591 450 vline~;
#X obj 591 474 mtof~;
#X msg 461 421 1 1 \, 0 10 50;
#X obj 1025 509 vline~;
#X obj 1025 558 *~;
#X obj 1025 631 dac~ 1 2;
#X obj 1025 377 bng 15 250 50 0 empty empty empty 17 7 0 10 #fcfcfc #000000 #000000;
#X obj 1109 533 *~ 0.2;
#X obj 1163 449 vline~;
#X obj 1163 473 mtof~;
#X msg 1161 420 60 0 \, 20 50 0;
#X msg 589 421 50 0 \, 110 50 0;
#X obj 747 509 vline~;
#X obj 747 558 *~;
#X obj 747 631 dac~ 1 2;
#X obj 747 381 bng 15 250 50 0 empty empty empty 17 7 0 10 #fcfcfc #000000 #000000;
#X obj 837 533 *~ 0.2;
#X obj 877 449 vline~;
#X obj 877 473 mtof~;
#X msg 875 420 110 0 \, 50 50 0;
#X obj 551 510 osc~;
#X obj 837 509 osc~;
#X obj 1109 509 osc~;
#X msg 72 421 1 0.5 \, 0 10 50;
#X msg 260 421 1 0.5 \, 0 10 50;
#X msg 747 420 1 0.5 \, 0 10 50;
#X msg 1025 420 1 0.3 \, 0 10 50;
#X obj 65 30 loadbang;
#X msg 65 102 \; pd dsp \$1;
#X obj 69 81 tgl 15 0 empty empty empty 17 7 0 10 #fcfcfc #000000 #000000 0 1;
#X msg 65 54 1;
#X obj 445 149 key;
#X obj 445 211 select 97 115 100 102 103;
#X text 622 210 get current keycode and see if it matches the codes for a \, s \, d \, f and g;
#X connect 0 0 2 0;
#X connect 1 0 10 0;
#X connect 2 0 3 0;
#X connect 2 0 3 1;
#X connect 4 0 40 0;
#X connect 5 0 6 0;
#X connect 6 0 7 0;
#X connect 6 0 7 1;
#X connect 8 0 41 0;
#X connect 9 0 11 0;
#X connect 10 0 2 1;
#X connect 11 0 6 1;
#X connect 12 0 13 0;
#X connect 13 0 14 0;
#X connect 13 0 14 1;
#X connect 15 0 19 0;
#X connect 15 0 28 0;
#X connect 16 0 13 1;
#X connect 17 0 18 0;
#X connect 18 0 37 0;
#X connect 19 0 12 0;
#X connect 20 0 21 0;
#X connect 21 0 22 0;
#X connect 21 0 22 1;
#X connect 23 0 43 0;
#X connect 23 0 27 0;
#X connect 24 0 21 1;
#X connect 25 0 26 0;
#X connect 26 0 39 0;
#X connect 27 0 25 0;
#X connect 28 0 17 0;
#X connect 29 0 30 0;
#X connect 30 0 31 0;
#X connect 30 0 31 1;
#X connect 32 0 42 0;
#X connect 32 0 36 0;
#X connect 33 0 30 1;
#X connect 34 0 35 0;
#X connect 35 0 38 0;
#X connect 36 0 34 0;
#X connect 37 0 16 0;
#X connect 38 0 33 0;
#X connect 39 0 24 0;
#X connect 40 0 0 0;
#X connect 41 0 5 0;
#X connect 42 0 29 0;
#X connect 43 0 20 0;
#X connect 44 0 47 0;
#X connect 46 0 45 0;
#X connect 47 0 46 0;
#X connect 48 0 49 0;
#X connect 49 0 4 0;
#X connect 49 1 8 0;
#X connect 49 2 15 0;
#X connect 49 3 32 0;
#X connect 49 4 23 0;
