#N canvas 827 239 734 565 12;
#X text 723 334 Keycodes \; a = 97 \; s=115 \; d=100 \; f=102 \; g=103 \;;
#X obj 358 168 key;
#X obj 438 168 keyup;
#X obj 538 335 select 97 115 100 102 103;
#X text 95 157 detect keydown \; start timer \; detect keyup \; detect what key \; if known: save to var, f 21;
#X floatatom 346 571 5 0 0 0 - - - 0;
#X floatatom 409 571 5 0 0 0 - - - 0;
#X floatatom 466 571 5 0 0 0 - - - 0;
#X floatatom 522 571 5 0 0 0 - - - 0;
#X floatatom 573 571 5 0 0 0 - - - 0;
#X text 346 600 a;
#X text 409 600 s;
#X text 466 600 d;
#X text 522 600 f;
#X text 579 600 g;
#X obj 413 296 timer;
#X obj 358 241 bang;
#X obj 438 241 bang;
#X obj 346 522 float;
#X obj 399 522 float;
#X obj 456 522 float;
#X obj 512 522 float;
#X obj 563 522 float;
#X floatatom 426 388 5 0 0 0 - - - 0;
#X obj 275 322 bng 25 250 50 0 empty empty empty 17 7 0 10 #e4e4e4 #4d4d4d #373737;
#X floatatom 275 522 5 0 0 0 - - - 0;
#X text 275 298 Reset;
#X connect 1 0 16 0;
#X connect 2 0 17 0;
#X connect 2 0 3 0;
#X connect 3 0 18 0;
#X connect 3 1 19 0;
#X connect 3 2 20 0;
#X connect 3 3 21 0;
#X connect 3 4 22 0;
#X connect 15 0 23 0;
#X connect 16 0 15 0;
#X connect 17 0 15 1;
#X connect 18 0 5 0;
#X connect 19 0 6 0;
#X connect 20 0 7 0;
#X connect 21 0 8 0;
#X connect 22 0 9 0;
#X connect 23 0 18 1;
#X connect 23 0 19 1;
#X connect 23 0 20 1;
#X connect 23 0 21 1;
#X connect 23 0 22 1;
#X connect 24 0 25 0;
#X connect 25 0 5 0;
#X connect 25 0 6 0;
#X connect 25 0 7 0;
#X connect 25 0 9 0;
#X connect 25 0 8 0;
