#N canvas 827 239 734 565 12;
#X obj 74 251 bng 25 250 50 0 empty empty empty 17 7 0 10 #191919 #e1e1e1 #e1e1e1;
#X floatatom 118 428 8 0 0 0 - - - 12;
#X obj 117 358 float;
#X floatatom 176 290 5 0 0 0 - - - 12;
#X floatatom 128 292 5 0 0 0 - - - 0;
#X obj 179 250 bng 25 250 50 0 empty empty empty 17 7 0 10 #191919 #e1e1e1 #e1e1e1;
#X obj 128 250 bng 25 250 50 0 empty empty empty 17 7 0 10 #191919 #e1e1e1 #e1e1e1;
#X obj 190 358 + 1;
#X text 71 32 audio has a sample rate \, aka. the amount of meaurements (aka. floats) per seconds. \; \; Although existing counter objects exists we are going to do our own counter object. it is very much comparable to a while-loop in Javascript., f 43;
#X text 121 225 reset;
#X text 80 224 +1;
#X obj 379 291 delay;
#X connect 0 0 2 0;
#X connect 2 0 1 0;
#X connect 2 0 7 0;
#X connect 3 0 2 1;
#X connect 4 0 2 0;
#X connect 5 0 3 0;
#X connect 6 0 4 0;
#X connect 7 0 2 1;
