#N canvas 827 239 734 565 12;
#X obj 79 402 outlet b;
#X obj 193 92 inlet delay_float;
#X obj 54 216 trigger;
#X obj 128 327 spigot;
#X obj 129 217 tgl 25 0 empty empty empty 17 7 0 10 #e4e4e4 #4d4d4d #373737 0 1;
#X obj 181 273 delay;
#X floatatom 267 286 5 0 0 0 - - - 0;
#X obj 227 232 > 0;
#X obj 188 155 t f f;
#X obj 25 90 inlet active_toggle float;
#X text 280 229 prevent audio from playing when key time = 0;
#X text 23 57 Allows channel to be turned off;
#X connect 1 0 8 0;
#X connect 2 0 5 0;
#X connect 2 1 0 0;
#X connect 3 0 2 0;
#X connect 4 0 3 1;
#X connect 4 0 5 0;
#X connect 5 0 3 0;
#X connect 7 0 6 0;
#X connect 7 0 4 0;
#X connect 8 0 5 1;
#X connect 8 1 7 0;
#X connect 9 0 4 0;
