#N canvas 827 239 734 565 12;
#X text 771 302 Keycodes \; a = 97 \; s=115 \; d=100 \; f=102 \; g=103 \;;
#X obj 586 303 select 97 115 100 102 103;
#X floatatom 394 539 5 0 0 0 - - - 0;
#X floatatom 457 539 5 0 0 0 - - - 0;
#X floatatom 514 539 5 0 0 0 - - - 0;
#X floatatom 570 539 5 0 0 0 - - - 0;
#X floatatom 621 539 5 0 0 0 - - - 0;
#X text 394 568 a;
#X text 457 568 s;
#X text 514 568 d;
#X text 570 568 f;
#X text 627 568 g;
#X obj 461 264 timer;
#X obj 406 209 bang;
#X obj 486 209 bang;
#X obj 394 490 float;
#X obj 447 490 float;
#X obj 504 490 float;
#X obj 560 490 float;
#X obj 611 490 float;
#X floatatom 474 356 5 0 0 0 - - - 0;
#X obj 323 290 bng 25 250 50 0 empty empty empty 17 7 0 10 #e4e4e4 #4d4d4d #373737;
#X floatatom 323 490 5 0 0 0 - - - 0;
#X text 323 266 Reset;
#X obj 283 961 vline~;
#X obj 373 961 noise~;
#X obj 283 1010 *~;
#X obj 283 1083 dac~ 1 2;
#X obj 373 985 *~ 0.2;
#X msg 283 872 1 0.5 \, 0 10 50;
#X obj 508 961 vline~;
#X obj 508 1010 *~;
#X obj 508 1083 dac~ 1 2;
#X obj 598 961 osc~ 220;
#X obj 598 985 *~ 0.2;
#X obj 736 964 vline~;
#X obj 736 1013 *~;
#X obj 736 1086 dac~ 1 2;
#X obj 826 988 *~ 0.2;
#X obj 866 904 vline~;
#X obj 866 928 mtof~;
#X msg 736 875 1 1 \, 0 10 50;
#X obj 1302 1003 vline~;
#X obj 1302 1052 *~;
#X obj 1302 1125 dac~ 1 2;
#X obj 1386 1027 *~ 0.2;
#X obj 1411 943 vline~;
#X obj 1411 967 mtof~;
#X msg 1409 914 60 0 \, 20 50 0;
#X msg 864 875 50 0 \, 110 50 0;
#X obj 1022 1003 vline~;
#X obj 1022 1052 *~;
#X obj 1022 1125 dac~ 1 2;
#X obj 1112 1027 *~ 0.2;
#X obj 1152 943 vline~;
#X obj 1152 967 mtof~;
#X msg 1150 914 110 0 \, 50 50 0;
#X obj 826 964 osc~;
#X obj 1112 1003 osc~;
#X obj 1386 1003 osc~;
#X msg 508 872 1 0.5 \, 0 10 50;
#X msg 1022 914 1 0.5 \, 0 10 50;
#X msg 1302 914 1 0.3 \, 0 10 50;
#X obj 163 545 bng 25 250 50 0 empty empty empty 17 7 0 10 #e4e4e4 #4d4d4d #373737;
#X text 155 512 Invert;
#X obj 247 653 bng 25 250 50 0 empty empty empty 17 7 0 10 #e4e4e4 #4d4d4d #373737;
#X obj 295 651 bng 25 250 50 0 empty empty empty 17 7 0 10 #e4e4e4 #4d4d4d #373737;
#X text 245 626 Play;
#X text 288 619 Stop;
#X obj 272 757 custom_metronome;
#X obj 500 759 custom_metronome;
#X obj 735 757 custom_metronome;
#X obj 1014 761 custom_metronome;
#X obj 1316 757 custom_metronome;
#X obj 245 697 f 1;
#X obj 295 695 f 0;
#X obj 428 126 key_repeat_filter;
#X connect 1 0 15 0;
#X connect 1 1 16 0;
#X connect 1 2 17 0;
#X connect 1 3 18 0;
#X connect 1 4 19 0;
#X connect 2 0 69 1;
#X connect 3 0 70 1;
#X connect 4 0 71 1;
#X connect 5 0 72 1;
#X connect 6 0 73 1;
#X connect 12 0 20 0;
#X connect 13 0 12 0;
#X connect 14 0 12 1;
#X connect 15 0 2 0;
#X connect 16 0 3 0;
#X connect 17 0 4 0;
#X connect 18 0 5 0;
#X connect 19 0 6 0;
#X connect 20 0 15 1;
#X connect 20 0 16 1;
#X connect 20 0 17 1;
#X connect 20 0 18 1;
#X connect 20 0 19 1;
#X connect 21 0 22 0;
#X connect 22 0 2 0;
#X connect 22 0 3 0;
#X connect 22 0 4 0;
#X connect 22 0 6 0;
#X connect 22 0 5 0;
#X connect 24 0 26 0;
#X connect 25 0 28 0;
#X connect 26 0 27 0;
#X connect 26 0 27 1;
#X connect 28 0 26 1;
#X connect 29 0 24 0;
#X connect 30 0 31 0;
#X connect 31 0 32 0;
#X connect 31 0 32 1;
#X connect 33 0 34 0;
#X connect 34 0 31 1;
#X connect 35 0 36 0;
#X connect 36 0 37 0;
#X connect 36 0 37 1;
#X connect 38 0 36 1;
#X connect 39 0 40 0;
#X connect 40 0 57 0;
#X connect 41 0 35 0;
#X connect 42 0 43 0;
#X connect 43 0 44 0;
#X connect 43 0 44 1;
#X connect 45 0 43 1;
#X connect 46 0 47 0;
#X connect 47 0 59 0;
#X connect 48 0 46 0;
#X connect 49 0 39 0;
#X connect 50 0 51 0;
#X connect 51 0 52 0;
#X connect 51 0 52 1;
#X connect 53 0 51 1;
#X connect 54 0 55 0;
#X connect 55 0 58 0;
#X connect 56 0 54 0;
#X connect 57 0 38 0;
#X connect 58 0 53 0;
#X connect 59 0 45 0;
#X connect 60 0 30 0;
#X connect 61 0 50 0;
#X connect 62 0 42 0;
#X connect 65 0 74 0;
#X connect 66 0 75 0;
#X connect 69 0 29 0;
#X connect 70 0 60 0;
#X connect 71 0 41 0;
#X connect 71 0 49 0;
#X connect 72 0 61 0;
#X connect 72 0 56 0;
#X connect 73 0 62 0;
#X connect 73 0 48 0;
#X connect 74 0 69 0;
#X connect 74 0 70 0;
#X connect 74 0 71 0;
#X connect 74 0 72 0;
#X connect 74 0 73 0;
#X connect 75 0 69 0;
#X connect 75 0 70 0;
#X connect 75 0 71 0;
#X connect 75 0 72 0;
#X connect 75 0 73 0;
#X connect 76 0 13 0;
#X connect 76 1 1 0;
#X connect 76 1 14 0;
