#N canvas 203 169 848 517 12;
#X floatatom 79 357 5 0 0 0 - - - 0;
#X text 120 356 key;
#X text 288 350 keyup;
#X obj 79 267 key_repeat_filter_abstraction;
#X obj 100 401 print key-pressed;
#X obj 261 401 print key-released;
#X text 79 57 if you press a key on the keyboard and hold it down the system on your computer is often set to make the keypress automatically repeat., f 117;
#X text 79 94 The abstraction below is filtering out these repetitions and only outputs the actual moments that the key is pressed and released, f 117;
#X text 79 133 The values correspond to the ascii codes of the keys.;
#X obj 84 593 key;
#X floatatom 84 673 5 0 0 0 - - - 12;
#X floatatom 175 673 5 0 0 0 - - - 12;
#X obj 175 593 keyup;
#X obj 109 634 bng 25 250 50 0 empty empty empty 17 7 0 10 #e4e4e4 #4d4d4d #373737;
#X obj 204 634 bng 25 250 50 0 empty empty empty 17 7 0 10 #e4e4e4 #4d4d4d #373737;
#X obj 106 312 bng 25 250 50 0 empty empty empty 17 7 0 10 #e4e4e4 #4d4d4d #373737;
#X floatatom 232 351 5 0 0 0 - - - 12;
#X obj 261 312 bng 25 250 50 0 empty empty empty 17 7 0 10 #e4e4e4 #4d4d4d #373737;
#X text 79 554 Here you see the original key and keyup objects that output the repeating keys when held down, f 89;
#X connect 0 0 4 0;
#X connect 3 0 0 0;
#X connect 3 0 15 0;
#X connect 3 1 16 0;
#X connect 3 1 17 0;
#X connect 9 0 10 0;
#X connect 9 0 13 0;
#X connect 12 0 11 0;
#X connect 12 0 14 0;
#X connect 16 0 5 0;
