#N canvas 827 239 734 565 12;
#X text 46 42 Make a [threshold] abstraction that copies part of the behaviour of the [threshold~] object but fully works in the domain of messages (and not the domain of signals) \; \; You have to implement the trigger and rest values but you don't have to implement the debounce times. \; \; When the numbers on the left inlet have been below the rest level and currently exceed the trigger level a bang is produced on the trigger output. When the numbers on the left inlet have been above the trigger level and reach a value below the rest level a bang is produced on the rest level. A new trigger can only be produced after a rest has occurred. A new rest can only be produced after a trigger has occurred. The abstraction should have three inlets (not like [threshold~] that has two): the left inlet receives the floats that are being checked against the trigger and rest values. the middle inlet sets the trigger level. the right inlet sets the rest level.;
#X floatatom 666 276 5 0 0 0 - - - 0;
#X floatatom 822 242 5 0 0 0 - - - 0;
#X floatatom 1186 218 5 0 0 0 - - - 0;
#X obj 663 453 >;
#X obj 662 504 select 1;
#X obj 661 570 t b b;
#X obj 1198 686 spigot;
#X obj 734 600 f 1;
#X obj 1187 424 <;
#X obj 1187 541 t b b;
#X obj 1221 580 f 0;
#X floatatom 1222 649 5 0 0 0 - - - 0;
#X floatatom 1274 472 5 0 0 0 - - - 0;
#X floatatom 570 490 5 0 0 0 - - - 0;
#X obj 1211 95 inlet reset threshold;
#X obj 725 99 inlet trigger threshold;
#X obj 565 97 inlet value;
#X obj 667 878 outlet trigger bang;
#X obj 1200 852 outlet reset bang;
#X text 733 453 1 check if the inlet val > trigger tresh.;
#X text 728 503 2 - if true: open the spigot to allow a reset bang;
#X text 534 877 3 - fire trigger bang;
#X text 1314 470 4 - check if inlet val < than reset tresh.;
#X obj 1187 475 select 1;
#X text 1315 542 5 - fire reset bang and then close spigot;
#X obj 1001 688 change;
#X connect 1 0 4 0;
#X connect 1 0 9 0;
#X connect 2 0 4 1;
#X connect 3 0 9 1;
#X connect 4 0 5 0;
#X connect 4 0 14 0;
#X connect 5 0 6 0;
#X connect 6 0 18 0;
#X connect 6 1 8 0;
#X connect 7 0 19 0;
#X connect 8 0 12 0;
#X connect 9 0 13 0;
#X connect 9 0 24 0;
#X connect 10 0 11 0;
#X connect 10 1 7 0;
#X connect 11 0 12 0;
#X connect 12 0 7 1;
#X connect 15 0 3 0;
#X connect 16 0 2 0;
#X connect 17 0 1 0;
#X connect 24 0 10 0;
