#N canvas 827 239 734 565 12;
#X text 677 385 HIGH tresh;
#X text 854 388 LOW thresh;
#X text 717 157 creation arguments:;
#X obj 518 300 vu 15 120 empty empty -1 -8 0 10 #404040 #000000 1 0;
#X text 714 130 - window size in samples (1024 default);
#X text 716 190 - period in samples per analysis (window/2 default);
#X text 716 231 <-- the output is RMS amplitude which (for a sinusoid) is about 3 dB below peak-to-peak amplitude., f 54;
#X obj 576 184 env~ 16384 8192;
#X obj 560 44 adc~ 1 2;
#X obj 578 260 - 95;
#X obj 855 953 vline~;
#X obj 855 1002 *~;
#X obj 855 1075 dac~ 1 2;
#X obj 939 977 *~ 0.2;
#X obj 964 893 vline~;
#X obj 964 917 mtof~;
#X msg 962 864 60 0 \, 20 50 0;
#X obj 939 953 osc~;
#X msg 855 864 1 0.3 \, 0 10 50;
#X obj 852 779 bng 25 250 50 0 empty empty empty 17 7 0 10 #191919 #e1e1e1 #e1e1e1;
#X obj 540 960 vline~;
#X obj 540 1009 *~;
#X obj 540 1082 dac~ 1 2;
#X obj 630 984 *~ 0.2;
#X obj 670 900 vline~;
#X obj 670 924 mtof~;
#X msg 540 871 1 1 \, 0 10 50;
#X msg 668 871 50 0 \, 110 50 0;
#X obj 630 960 osc~;
#X obj 538 773 bng 25 250 50 0 empty empty empty 17 7 0 10 #191919 #e1e1e1 #e1e1e1;
#X text 584 781 HIGH sound;
#X text 908 779 LOW sound;
#X text 966 389 dB;
#X text 785 387 dB;
#X text 21 30 The object has two outlets: the left outlet gives a bang for the trigger the right outlet gives a bang for the rest Use the [adc~ 1 2] object and the [env~] object to capture the sound of the microphone. Connect your [threshold] abstraction to the output of [env~]. Use the 5 sounds patch and connect a sound to the trigger outlet and another sound to the rest outlet. Adjust the trigger and rest levels in such a way that the sound gets triggered at the moment you clap your hands in front of the microphone. Submit both your main patch and your abstraction using brightspace.;
#X obj 681 552 custom_threshold;
#X obj 747 387 f -15;
#X obj 926 389 f -30;
#X obj 814 311 loadbang;
#X floatatom 579 313 5 0 0 0 - - - 0;
#X floatatom 581 219 5 0 0 0 - - - 0;
#X connect 7 0 40 0;
#X connect 8 0 7 0;
#X connect 8 1 7 0;
#X connect 9 0 3 0;
#X connect 9 0 39 0;
#X connect 10 0 11 0;
#X connect 11 0 12 0;
#X connect 11 0 12 1;
#X connect 13 0 11 1;
#X connect 14 0 15 0;
#X connect 15 0 17 0;
#X connect 16 0 14 0;
#X connect 17 0 13 0;
#X connect 18 0 10 0;
#X connect 19 0 18 0;
#X connect 19 0 16 0;
#X connect 20 0 21 0;
#X connect 21 0 22 0;
#X connect 21 0 22 1;
#X connect 23 0 21 1;
#X connect 24 0 25 0;
#X connect 25 0 28 0;
#X connect 26 0 20 0;
#X connect 27 0 24 0;
#X connect 28 0 23 0;
#X connect 29 0 26 0;
#X connect 29 0 27 0;
#X connect 35 0 29 0;
#X connect 35 1 19 0;
#X connect 36 0 35 1;
#X connect 37 0 35 2;
#X connect 38 0 36 0;
#X connect 38 0 37 0;
#X connect 39 0 35 0;
#X connect 40 0 9 0;
