#N canvas 827 239 734 565 12;
#X obj 113 115 key, f 6;
#X floatatom 113 158 6 0 0 0 - - - 16;
#X obj 587 115 keyup;
#X floatatom 587 158 7 0 0 0 - - - 16;
#X obj 791 115 array define key-status 256;
#X obj 113 309 array get key-status;
#X obj 113 461 array set key-status;
#X obj 164 219 loadbang;
#X msg 166 248 1;
#X obj 113 346 == 0;
#X obj 113 201 t f f;
#X obj 241 435 float;
#X obj 113 382 sel 1;
#X msg 115 427 1;
#X obj 587 294 array set key-status;
#X msg 588 254 0;
#X obj 587 213 t b f;
#X obj 241 544 outlet;
#X text 308 544 ascii code of key that is pressed;
#X obj 598 545 outlet;
#X text 665 545 ascii code of key that is released;
#X connect 0 0 1 0;
#X connect 1 0 10 0;
#X connect 2 0 3 0;
#X connect 3 0 16 0;
#X connect 5 0 9 0;
#X connect 7 0 8 0;
#X connect 8 0 5 1;
#X connect 9 0 12 0;
#X connect 10 0 5 0;
#X connect 10 1 6 1;
#X connect 10 1 11 1;
#X connect 11 0 17 0;
#X connect 12 0 13 0;
#X connect 12 0 11 0;
#X connect 13 0 6 0;
#X connect 15 0 14 0;
#X connect 16 0 15 0;
#X connect 16 1 14 1;
#X connect 16 1 19 0;
