#N canvas 827 239 734 565 12;
#X obj 316 285 + 1;
#X obj 189 255 float 0, f 9;
#X obj 442 374 spigot;
#X obj 465 257 tgl 25 0 empty empty empty 17 7 0 10 #e4e4e4 #4d4d4d #373737 0 1;
#X obj 495 320 delay;
#X obj 328 187 trigger b b b;
#X obj 272 168 b;
#X floatatom 205 179 5 0 0 0 - - - 0;
#X floatatom 254 400 5 0 0 0 - - - 0;
#X floatatom 155 356 6 0 0 0 - - - 16;
#X obj 349 477 outlet;
#X obj 425 50 inlet delay;
#X text 527 260 Enable counter;
#X text 38 144 Reset counter \; when triggered;
#X obj 247 347 < 4;
#X connect 0 0 1 1;
#X connect 1 0 0 0;
#X connect 1 0 9 0;
#X connect 1 0 14 0;
#X connect 2 0 5 0;
#X connect 3 0 2 1;
#X connect 3 0 4 0;
#X connect 4 0 2 0;
#X connect 5 0 4 0;
#X connect 5 1 10 0;
#X connect 5 2 1 0;
#X connect 6 0 7 0;
#X connect 7 0 1 0;
#X connect 11 0 6 0;
#X connect 11 0 3 0;
#X connect 11 0 4 1;
#X connect 14 0 8 0;
#X connect 14 0 2 1;
