#N canvas 827 239 527 327 12;
#X obj 65 94 bng 25 250 50 0 empty empty empty 17 7 0 10 #e4e4e4 #4d4d4d #373737;
#X obj 135 94 bng 25 250 50 0 empty empty empty 17 7 0 10 #e4e4e4 #4d4d4d #373737;
#X obj 206 94 bng 25 250 50 0 empty empty empty 17 7 0 10 #e4e4e4 #4d4d4d #373737;
#X msg 65 151 0;
#X msg 135 151 1;
#X msg 206 151 2;
#X obj 817 632 print;
#X text 57 27 Guess;
#X text 57 59 rock;
#X text 126 59 paper;
#X text 190 59 scissors;
#X obj 817 371 select 0 1 2;
#X obj 559 321 -;
#X msg 817 577 the computer chose \$1;
#X msg 817 430 symbol rock;
#X msg 936 430 symbol paper;
#X msg 1068 430 symbol scissors;
#X obj 817 246 random 3;
#X obj 90 626 print;
#X msg 90 571 you chose \$1;
#X obj 90 436 select 0 1 2;
#X msg 90 495 symbol rock;
#X msg 209 495 symbol paper;
#X msg 341 495 symbol scissors;
#X floatatom 559 361 5 0 0 0 - - - 0;
#X obj 559 433 % 3;
#X floatatom 559 471 5 0 0 0 - - - 0;
#X obj 86 280 f;
#X obj 817 311 f;
#X obj 559 397 + 3;
#X text 500 176 1 Control the order of operations for all the methods;
#X text 139 279 3 fetch user choice from input buttons;
#X text 906 245 2 Generate random number between 0 and 2;
#X text 606 334 3 trigger the math operation that calculates the rest from the two input values. This evaluates which player won., f 20;
#X msg 532 791 you win!;
#X msg 659 791 you loose...;
#X msg 423 791 it's a tie!;
#X obj 560 846 print;
#X obj 538 577 select 0 1 2;
#X msg 785 792 ERROR: invalid result \$1;
#X obj 500 215 t b b b b;
#X obj 538 545 f;
#X text 629 544 4 Once done the result is fetched and output is generated., f 16;
#X connect 0 0 3 0;
#X connect 0 0 40 0;
#X connect 1 0 4 0;
#X connect 1 0 40 0;
#X connect 2 0 5 0;
#X connect 2 0 40 0;
#X connect 3 0 27 1;
#X connect 4 0 27 1;
#X connect 5 0 27 1;
#X connect 11 0 14 0;
#X connect 11 1 15 0;
#X connect 11 2 16 0;
#X connect 12 0 24 0;
#X connect 13 0 6 0;
#X connect 14 0 13 0;
#X connect 15 0 13 0;
#X connect 16 0 13 0;
#X connect 17 0 28 0;
#X connect 19 0 18 0;
#X connect 20 0 21 0;
#X connect 20 1 22 0;
#X connect 20 2 23 0;
#X connect 21 0 19 0;
#X connect 22 0 19 0;
#X connect 23 0 19 0;
#X connect 24 0 29 0;
#X connect 25 0 26 0;
#X connect 26 0 41 1;
#X connect 27 0 20 0;
#X connect 27 0 12 0;
#X connect 28 0 11 0;
#X connect 28 0 12 1;
#X connect 29 0 25 0;
#X connect 34 0 37 0;
#X connect 35 0 37 0;
#X connect 36 0 37 0;
#X connect 38 0 36 0;
#X connect 38 1 34 0;
#X connect 38 2 35 0;
#X connect 38 3 39 0;
#X connect 39 0 37 0;
#X connect 40 0 41 0;
#X connect 40 1 12 0;
#X connect 40 2 27 0;
#X connect 40 3 17 0;
#X connect 41 0 38 0;
