#N canvas 0 25 1394 709 12;
#X msg 102 131 \; pd dsp \$1;
#X obj 102 105 tgl 15 0 empty empty empty 17 7 0 10 #fcfcfc #000000 #000000 0 1;
#N canvas 0 22 450 278 (subpatch) 0;
#X array my_array 370644 float 2;
#X coords 0 1 370644 -1 200 140 1 0 0;
#X restore 942 40 graph;
#X obj 567 757 line~;
#X obj 568 856 dac~ 1 2;
#X obj 567 798 tabread4~ my_array;
#X obj 566 82 my_soundfiler;
#X obj 555 45 bng 26 250 50 0 empty empty empty 17 7 0 10 #fcfcfc #000000 #000000;
#X text 584 54 load a file;
#X obj 422 133 bng 23 250 50 0 empty empty empty 17 7 0 10 #fcfcfc #000000 #000000;
#X obj 794 246 bng 26 250 50 0 empty empty empty 17 7 0 10 #fcfcfc #000000 #000000;
#X text 830 244 play backwards;
#X text 317 129 play forwards;
#X floatatom 566 120 10 0 0 0 - - - 0;
#X floatatom 644 121 10 0 0 0 - - - 0;
#X text 503 118 samples;
#X text 718 118 time (ms);
#X obj 102 54 loadbang;
#X msg 102 78 1;
#X obj 587 309 float;
#X obj 472 276 f 1;
#X obj 788 281 f 0;
#X floatatom 632 341 5 0 0 0 - - - 0;
#X obj 598 424 select 0 1;
#X obj 399 588 pack f f f;
#X obj 814 591 pack f f f;
#X msg 574 677 \$1 \, \$2 \$3;
#X floatatom 584 569 5 0 0 0 - - - 0;
#X floatatom 622 722 5 0 0 0 - - - 0;
#X obj 670 692 bng 25 250 50 0 empty empty empty 17 7 0 10 #e4e4e4 #4d4d4d #373737;
#X obj 550 495 t b b;
#X obj 671 501 t b b;
#X floatatom 447 806 5 0 0 0 - - - 0;
#X connect 1 0 0 0;
#X connect 3 0 5 0;
#X connect 5 0 4 0;
#X connect 5 0 4 1;
#X connect 6 0 13 0;
#X connect 6 1 14 0;
#X connect 7 0 6 0;
#X connect 9 0 20 0;
#X connect 10 0 21 0;
#X connect 13 0 24 1;
#X connect 13 0 25 0;
#X connect 14 0 24 2;
#X connect 14 0 25 2;
#X connect 17 0 18 0;
#X connect 18 0 1 0;
#X connect 19 0 22 0;
#X connect 19 0 23 0;
#X connect 20 0 19 0;
#X connect 21 0 19 0;
#X connect 23 0 31 0;
#X connect 23 1 30 0;
#X connect 24 0 26 0;
#X connect 25 0 26 0;
#X connect 26 0 3 0;
#X connect 27 0 24 0;
#X connect 27 0 25 1;
#X connect 28 0 3 1;
#X connect 29 0 28 0;
#X connect 30 0 24 0;
#X connect 30 1 27 0;
#X connect 31 0 25 0;
#X connect 31 1 27 0;
